<?xml version="1.0" encoding="utf-8"?>
<!-- Generator: Adobe Illustrator 25.2.1, SVG Export Plug-In . SVG Version: 6.00 Build 0)  -->
<svg version="1.1" id="Layer_1" xmlns="http://www.w3.org/2000/svg" xmlns:xlink="http://www.w3.org/1999/xlink" x="0px" y="0px"
	 viewBox="0 0 376 288" style="enable-background:new 0 0 376 288;" xml:space="preserve">
<style type="text/css">
	.st0{fill:#E2D9D0;}
</style>
<g>
	<path class="st0" d="M246.6,236c-4.1,0.2-7.2-0.5-9.2-2c-2-1.5-4-4.1-5.9-7.7c-0.6-1.1-1.1-2.3-1.6-3.4c-0.5-1.1-0.9-2.3-1.3-3.4
		c-0.8-1.5-2.1-2.2-3.9-2c-2.4,0.8-4.2,1.5-7.7,2.5c-2.4,0.7-4.5,1.6-10,3c-5.4,1.4-10.3,3-14.7,4.7c-2.8,0.9-4,2.6-3.9,4.8
		c0,0.4-0.1,0.9-0.1,1.4c-0.1,0.6-0.1,1-0.1,1.4c-0.2,1.5-0.5,2.5-0.9,2.8c-0.4,0.4-1.4,0.5-3,0.3c-1.6-0.2-2.6-0.5-3-0.9
		c-0.4-0.4-1.2-0.9-2.4-1.7c-2.2-1.3-4.6-1.7-7.4-1.1c-4,0.8-7.8,0.6-11.6-0.4c-3.8-1-7.4-2.5-11-4.4c-2.2-1.1-2.5-2.6-0.9-4.5
		c1.6-1.5,3.3-2.7,5-3.7c1.6-0.8,3.2-1.5,4.9-2.3c1.7-0.8,3.3-1.5,4.9-2.3c1.4-0.8,2.2-1.4,2.4-1.8c0.2-0.5,0.2-1.5,0-3
		c-1-11.9-1.4-24.8-1.2-38.6c0.2-13.8,5.3-47.8,9.2-60.7c1-2.5,2.9-3.7,5.6-3.7c3.6,0,6.5,0.3,8.9,0.9c2.4,0.6,5.2,1.6,8.6,3.1
		c2.4,0.9,4,2.8,5,5.7c0.6,2.1,0.9,4.1,0.9,6c0,1.9-0.2,3.9-0.6,6c-3,14.2-5.7,27-8.1,38.4c-2.5,11.4-3.8,23.7-4.6,37.3
		c2,0.9,4.3,1.1,7.1,0.4c2.8-0.7,5.1-1.2,7.1-1.6c5.1-0.8,13.2-1.6,18.4-2.5c1.6-0.4,2.6-0.7,3-1c0.4-0.3,0.7-1.2,0.9-2.7
		c0.8-15.5,4.5-38.9,8-50.3c3.6-11.4,7.7-23.1,12.4-35c1-1.7,2.4-2.6,4.1-2.8c4.1-0.4,7.7-0.4,10.7-0.1c3,0.3,6.4,1.2,10.4,2.7
		c3.6,1.5,5,4,4.4,7.4c-8.5,15.3-13.2,30.1-15.9,41.4c-2.7,11.3-4.8,23-6.4,34.9c-0.2,2.3,0.8,3.5,3,3.7c1.4,0.2,2.8,0.3,4.1,0.4
		c1.4,0.1,2.9,0.2,4.4,0.4c1.4,0.2,2.8,0.4,4.1,0.6c1.4,0.2,2.9,0.5,4.4,0.9c1,0.4,1.4,0.9,1.2,1.7c-0.4,0.8-1,1.1-1.8,1.1
		c-1,0.4-1.9,0.6-2.7,0.7c-0.8,0.1-1.7,0.3-2.7,0.7c-1.6,0.4-3.2,0.7-4.9,1c-1.7,0.3-3.4,0.6-5.2,1c-2.2,0.4-3.9,1-5,2
		c-1.2,0.9-2,2.6-2.4,5.1c-0.4,3.2-0.9,6.4-1.6,9.6C247.8,229.6,247.1,232.8,246.6,236z"/>
	<ellipse class="st0" cx="308.7" cy="212.9" rx="18.4" ry="17.6"/>
	<g>
		<g>
			<path class="st0" d="M166.6,50.8l-1.6,7.4c-0.6,2.6-1.2,5.1-1.9,7.3c-1.4,4.7-3,9.2-4.6,13.5c-1.6,4.1-3.1,8.5-4.4,13
				c-1,2.6-2,5.2-3,7.8c-3.1,8.3-6.1,16.7-9.1,25.1c-2.1,6-4.1,12-6.1,18c-1.5,4.7-3,9.4-4.5,14c-0.3,0.9-0.6,1.8-0.9,2.8
				c-1.1,3.6-2.2,7.1-3.3,10.7c-0.3,1-0.6,2-0.9,3c0,0.1-0.1,0.2-0.1,0.3c-1.3,4.3-2.5,8.5-3.8,12.8c-2,6.9-3.8,13.6-5.5,20.1
				c-1.2,4.6-7.6,23.5-8.9,29c-1.1,3.4-2.3,6.8-3.6,10.2c-0.3,0.6-0.5,1.2-0.8,1.6c-0.5,0.8-1,1.3-1.6,1.5c-0.9,0.3-2.1,0.3-3.8,0
				c-4-0.9-9.6-21.4,3.7-85.8c0.4-1.9,0.9-3.9,1.4-5.9c0.1-0.3,0.1-0.6,0.2-0.9c0.6-2.5,1.2-5,1.8-7.6c2.3-9.7,4.6-19.2,6.9-28.4
				c0.1-0.2,0.1-0.5,0.2-0.7c0.7-2.7,1.3-5.4,2-8.1c0.1-0.6,0.3-1.2,0.5-1.8c1.8-7.2,4.1-14.4,6.7-21.5c2.8-7.5,5.8-15,8.9-22.3
				c3.1-7.4,6.4-14.6,10-21.8c1.4-2.6,3.1-5.4,5.2-8.5c1.5-2.1,2.7-3.3,3.6-3.5c1-0.2,2.5,0.1,4.5,1c1.5,0.5,2.9,1.3,4.2,2.2
				c1.3,1,2.7,1.9,4.1,2.9C165.9,40.8,167.4,45,166.6,50.8z"/>
		</g>
		<g>
			<path class="st0" d="M83.9,52.8c-1.3-2.8-3.1-6.7-3.1-6.7c-3.2-4.6-7-6.2-11.4-5c-1.6,0.4-3.2,0.8-4.7,1.2
				c-1.5,0.4-3,0.9-4.3,1.7c-2,1-3.2,1.9-3.7,2.8c-0.5,0.9-0.6,2.6-0.2,5.2c0.6,3.7,1.3,6.9,2,9.7c2.3,7.6,4.8,15.1,7.5,22.5
				c2.7,7.4,5.6,14.8,8.6,22.1c13.4,27.9,38.1,56.6,38.3,56.8c12.5,8.9,21.2,17.4,21.9,14.9c1.8-6.9-7-35.2-15.8-47.4
				C119,130.4,95.7,88.4,83.9,52.8z"/>
		</g>
	</g>
</g>
</svg>
